HIERARCHY
ROOT Pelvis
{
	OFFSET 0.000000 0.000000 0.000000
	CHANNELS 6 Xposition Yposition Zposition Xrotation Yrotation Zrotation
	JOINT LeftUpLeg_virtual
	{
		OFFSET 0.000000 0.000000 0.000000
		CHANNELS 3 Xrotation Yrotation Zrotation
		JOINT LeftUpLeg
		{
			OFFSET 18.735201 -5.666702 -4.541200
			CHANNELS 3 Xrotation Yrotation Zrotation
			JOINT LeftLeg
			{
				OFFSET -0.021200 -31.938179 0.493100
				CHANNELS 3 Xrotation Yrotation Zrotation
				JOINT LeftFoot
				{
					OFFSET 0.021200 -31.938179 -4.336299
					CHANNELS 3 Xrotation Yrotation Zrotation
					JOINT LeftToeBase
					{
						OFFSET 0.943001 -26.722000 15.023500
						CHANNELS 3 Xrotation Yrotation Zrotation
						End Site
						{
							OFFSET 0 0 0
						}
					}
				}
			}
		}
	}
	JOINT RightUpLeg_virtual
	{
		OFFSET 0.000000 0.000000 0.000000
		CHANNELS 3 Xrotation Yrotation Zrotation
		JOINT RightUpLeg
		{
			OFFSET -18.735201 -5.666702 -4.541200
			CHANNELS 3 Xrotation Yrotation Zrotation
			JOINT RightLeg
			{
				OFFSET 0.018946 -31.938133 0.493100
				CHANNELS 3 Xrotation Yrotation Zrotation
				JOINT RightFoot
				{
					OFFSET -0.018946 -31.938126 -4.336299
					CHANNELS 3 Xrotation Yrotation Zrotation
					JOINT RightToeBase
					{
						OFFSET -0.943001 -26.722004 15.023500
						CHANNELS 3 Xrotation Yrotation Zrotation
						End Site
						{
							OFFSET 0 0 0
						}
					}
				}
			}
		}
	}
	JOINT Hips_virtual
	{
		OFFSET 0.000000 0.000000 0.000000
		CHANNELS 3 Xrotation Yrotation Zrotation
		JOINT Hips
		{
			OFFSET -0.000000 -0.000000 -0.000000
			CHANNELS 3 Xrotation Yrotation Zrotation
			JOINT Spine
			{
				OFFSET 0.000000 10.199997 -0.299500
				CHANNELS 3 Xrotation Yrotation Zrotation
				JOINT Spine1
				{
					OFFSET 0.000000 11.900002 -1.516600
					CHANNELS 3 Xrotation Yrotation Zrotation
					JOINT Spine2
					{
						OFFSET 0.000000 13.600006 -2.842500
						CHANNELS 3 Xrotation Yrotation Zrotation
						JOINT Neck_virtual
						{
							OFFSET 0.000000 0.000000 0.000000
							CHANNELS 3 Xrotation Yrotation Zrotation
							JOINT Neck
							{
								OFFSET 0.000000 9.624100 -2.890100
								CHANNELS 3 Xrotation Yrotation Zrotation
								JOINT Head
								{
									OFFSET 0.000000 14.068802 -1.351900
									CHANNELS 3 Xrotation Yrotation Zrotation
									End Site
									{
										OFFSET 0 0 0
									}
								}
							}
						}
						JOINT LeftShoulder_virtual
						{
							OFFSET 0.000000 0.000000 0.000000
							CHANNELS 3 Xrotation Yrotation Zrotation
							JOINT LeftShoulder
							{
								OFFSET 15.263000 10.923401 -0.547700
								CHANNELS 3 Xrotation Yrotation Zrotation
								JOINT LeftArm
								{
									OFFSET 25.438599 -2.830597 -13.032500
									CHANNELS 3 Xrotation Yrotation Zrotation
									JOINT LeftForeArm
									{
										OFFSET 29.960503 0.000000 0.000000
										CHANNELS 3 Xrotation Yrotation Zrotation
										JOINT LeftHand
										{
											OFFSET 27.849251 0.000000 0.000000
											CHANNELS 3 Xrotation Yrotation Zrotation
											End Site
											{
												OFFSET 0 0 0
											}
										}
									}
								}
							}
						}
						JOINT RightShoulder_virtual
						{
							OFFSET 0.000000 0.000000 0.000000
							CHANNELS 3 Xrotation Yrotation Zrotation
							JOINT RightShoulder
							{
								OFFSET -15.263000 10.923401 -0.547700
								CHANNELS 3 Xrotation Yrotation Zrotation
								JOINT RightArm
								{
									OFFSET -25.438599 -2.830597 -13.032500
									CHANNELS 3 Xrotation Yrotation Zrotation
									JOINT RightForeArm
									{
										OFFSET -29.960503 0.000000 0.000000
										CHANNELS 3 Xrotation Yrotation Zrotation
										JOINT RightHand
										{
											OFFSET -27.849251 0.000000 0.000000
											CHANNELS 3 Xrotation Yrotation Zrotation
											End Site
											{
												OFFSET 0 0 0
											}
										}
									}
								}
							}
						}
					}
				}
			}
		}
	}
}
MOTION
Frames: 12
Frame Time: 0.03333333
0.217039 107.883873 3.312931 0.000000 0.000000 0.000000 -33.622501 -1.277711 1.596147 -80.206105 1.346504 19.600097 42.818077 13.081362 -9.403605 -10.379520 16.358602 -9.894223 0.000000 0.000000 0.000000 -38.739897 -0.269651 0.091977 -77.056978 2.124731 -13.716082 48.043940 -16.283635 5.918176 -8.727274 -20.750665 8.535786 0.000000 0.000000 0.000000 -22.212484 -10.074024 -0.089276 -72.828736 6.158762 10.343905 2.762376 0.066277 -0.533364 0.418659 0.237427 -0.809558 0.000000 0.000000 0.000000 1.615564 0.365363 -2.256680 -1.277563 1.091745 -1.689489 0.000000 0.000000 0.000000 2.581743 -0.073135 0.459807 0.922792 -2.944426 -5.969609 7.119810 -35.345047 -48.939757 22.262573 -69.530390 12.249910 0.000000 0.000000 0.000000 1.954034 -0.274170 -0.195046 0.764911 4.120125 5.101234 -14.057864 21.971224 70.264301 -167.651938 72.802331 174.146027 0.000000 0.000000 0.000000 
0.374400 107.420952 4.153076 0.000000 0.000000 0.000000 -33.968354 -2.279991 1.843556 -80.353672 0.846307 19.721070 42.928757 13.910244 -10.335022 -10.022201 17.607830 -10.773573 0.000000 0.000000 0.000000 -38.265394 2.229039 -0.208773 -76.452862 3.052251 -14.143030 47.839564 -18.129079 6.848108 -8.849391 -22.860751 8.449538 0.000000 0.000000 0.000000 -23.354635 -11.272898 -0.634227 -72.049309 7.886039 12.691082 3.096517 -0.160392 -1.052816 0.693681 0.437074 -0.769168 0.000000 0.000000 0.000000 1.499765 0.169283 -2.709776 -1.294746 1.195663 -1.831330 0.000000 0.000000 0.000000 1.986042 -0.369594 0.468659 1.419466 -2.516203 -5.993748 7.752607 -37.999570 -50.771538 28.133939 -72.345364 16.809082 0.000000 0.000000 0.000000 1.589787 -0.301424 -0.291325 0.877473 3.587544 5.709944 -14.989670 21.074805 71.763152 -167.099226 67.033485 173.696382 0.000000 0.000000 0.000000 
-0.018467 107.452148 3.256813 0.000000 0.000000 0.000000 -33.117750 -4.270744 2.761697 -79.478752 -0.103356 20.563208 43.940957 13.961741 -10.299895 -9.309652 17.649183 -10.643199 0.000000 0.000000 0.000000 -38.650968 2.367202 -0.144528 -76.788682 3.143645 -14.114203 48.466319 -18.730419 7.795165 -8.201122 -23.852733 9.269083 0.000000 0.000000 0.000000 -21.488146 -10.519383 0.911858 -74.178081 10.821977 13.034848 4.134109 -0.501277 -1.218271 0.309134 0.262525 -0.379742 0.000000 0.000000 0.000000 1.839821 -0.034770 -2.534953 -1.310239 1.386990 -1.762658 0.000000 0.000000 0.000000 1.390721 -0.367784 0.364855 1.081915 -2.618192 -7.038532 8.252626 -37.533693 -49.558234 28.582866 -70.763587 17.191183 0.000000 0.000000 0.000000 1.348110 -0.197220 -0.426831 1.187064 2.905029 5.331014 -15.133963 20.834828 73.405546 -167.353186 62.493540 173.598410 0.000000 0.000000 0.000000 
0.029388 107.207970 4.213514 0.000000 0.000000 0.000000 -33.057795 -4.242646 3.337511 -79.328713 -0.385791 20.936051 43.178905 14.053654 -10.636249 -9.845771 17.875739 -11.171772 0.000000 0.000000 0.000000 -38.340758 2.419014 -1.613809 -76.376125 3.792866 -15.200668 49.383040 -19.201765 7.746872 -7.202494 -24.376096 8.684595 0.000000 0.000000 0.000000 -23.440033 -10.501471 0.102479 -70.780677 8.960529 10.662778 3.086497 -0.597216 -1.039158 0.580025 0.658796 -0.841376 0.000000 0.000000 0.000000 1.951888 -0.110148 -2.406288 -1.339694 1.313807 -1.680472 0.000000 0.000000 0.000000 1.835106 -0.377733 0.170973 0.777273 -2.364331 -6.474882 7.665647 -38.203167 -49.263344 28.399636 -71.400735 17.417997 0.000000 0.000000 0.000000 1.550123 0.105869 -0.688290 0.986363 3.296312 5.683221 -15.249996 22.113496 72.164015 -168.339192 61.092736 174.414987 0.000000 0.000000 0.000000 
0.522530 107.712128 2.844694 0.000000 0.000000 0.000000 -32.241290 -6.238092 2.395703 -78.599181 -0.405068 20.506567 41.861376 14.726436 -10.449833 -10.978361 18.358469 -10.588946 0.000000 0.000000 0.000000 -38.401362 2.777055 -2.270552 -76.343210 4.182151 -15.634730 49.642699 -18.637612 8.544398 -6.790321 -24.212163 10.292947 0.000000 0.000000 0.000000 -22.457344 -8.940639 0.621650 -72.635223 9.459118 11.426354 4.248944 -0.677343 -1.382538 0.395816 0.392169 -0.575499 0.000000 0.000000 0.000000 2.718382 -0.392299 -2.641264 -1.427448 1.486082 -1.755252 0.000000 0.000000 0.000000 1.776635 -0.814409 0.162635 0.390119 -1.773871 -6.592913 4.739735 -39.531557 -50.061503 27.812559 -74.007982 17.452866 0.000000 0.000000 0.000000 1.474844 -0.048288 -0.615003 1.459107 3.077608 4.998870 -12.383035 19.322545 71.830101 -166.986814 58.951206 173.020453 0.000000 0.000000 0.000000 
-0.302873 107.787857 2.828411 0.000000 0.000000 0.000000 -32.547265 -5.785466 2.306363 -79.002961 -0.276526 20.510221 41.491446 14.976260 -10.407018 -11.154539 18.582045 -10.455769 0.000000 0.000000 0.000000 -38.931802 1.392699 -2.434380 -76.871436 3.815755 -15.433031 49.915326 -19.090036 8.364648 -6.570457 -24.563105 9.593037 0.000000 0.000000 0.000000 -25.092196 -13.856683 -0.097807 -68.926547 9.345183 12.110566 3.103695 -0.956688 -1.191863 0.895048 0.747177 -0.501352 0.000000 0.000000 0.000000 2.136227 -0.163159 -3.034537 -1.241750 1.471575 -1.930620 0.000000 0.000000 0.000000 1.410490 -0.730729 -0.111218 0.616487 -1.928860 -6.448002 3.841531 -39.247640 -50.054287 32.409480 -75.375072 22.030160 0.000000 0.000000 0.000000 1.372446 0.060869 -0.605294 1.487773 2.475114 5.174871 -12.404058 19.339515 73.570181 -166.293181 58.839259 173.900619 0.000000 0.000000 0.000000 
-0.195447 107.893112 2.507042 0.000000 0.000000 0.000000 -32.858718 -4.320147 3.687009 -79.286250 -0.576518 21.377328 43.451068 14.749121 -11.250027 -9.887099 18.661815 -11.557808 0.000000 0.000000 0.000000 -40.158586 1.146030 -2.048276 -78.097196 3.701693 -15.073913 50.431692 -18.788285 8.199728 -6.155698 -24.215715 9.469141 0.000000 0.000000 0.000000 -24.200122 -13.650796 0.226261 -67.685372 6.946372 13.428499 2.445025 -0.071444 -0.977938 1.002772 0.337316 -0.386883 0.000000 0.000000 0.000000 2.503878 -0.257460 -2.880849 -1.238710 1.497097 -1.870206 0.000000 0.000000 0.000000 1.493946 -0.645721 0.077009 0.799824 -1.988397 -5.313798 6.891275 -39.622727 -47.560482 33.880498 -75.394866 23.261051 0.000000 0.000000 0.000000 1.339535 0.140995 -0.547397 1.481887 1.601230 5.828307 -12.045278 16.270494 74.212020 -164.009699 59.578893 171.852682 0.000000 0.000000 0.000000 
-0.440546 107.046516 2.610294 0.000000 0.000000 0.000000 -33.798211 -3.792880 3.351407 -80.023883 -0.432345 20.897425 43.031052 14.381433 -11.247909 -9.932919 18.433286 -11.939666 0.000000 0.000000 0.000000 -40.193826 2.414282 -1.088476 -78.146366 3.678818 -14.515412 50.935429 -17.951250 8.673313 -5.435444 -23.687374 10.786435 0.000000 0.000000 0.000000 -25.950605 -18.255127 -0.756137 -68.191939 8.166315 17.912525 2.902827 -0.318638 -0.213655 0.497254 0.269266 -0.309468 0.000000 0.000000 0.000000 1.883487 -0.330814 -2.909689 -1.538323 1.523369 -1.779414 0.000000 0.000000 0.000000 1.562661 -0.961534 0.148749 0.650832 -1.173399 -4.976402 9.300925 -39.860086 -45.400004 41.539609 -76.841404 31.505286 0.000000 0.000000 0.000000 1.704901 0.542119 -0.811492 1.181569 2.349939 5.993786 -11.673158 13.675567 73.314704 -164.586686 58.039061 171.797795 0.000000 0.000000 0.000000 
-0.199832 107.141495 2.451801 0.000000 0.000000 0.000000 -33.620981 -4.693058 3.212204 -79.899334 -0.620470 20.931390 44.168706 14.316675 -11.077289 -8.882156 18.392612 -11.708560 0.000000 0.000000 0.000000 -39.965312 0.441551 -1.460435 -77.955039 3.099365 -14.472833 49.800186 -17.893070 8.769347 -5.876720 -23.809459 11.177004 0.000000 0.000000 0.000000 -24.951960 -17.490687 0.141953 -67.862915 8.990722 19.344757 2.794734 -0.317698 -0.740638 0.530920 0.325115 -0.382683 0.000000 0.000000 0.000000 1.694205 -0.252326 -2.872041 -1.576687 1.547185 -1.746550 0.000000 0.000000 0.000000 1.548452 -0.880864 0.043618 0.904055 -1.209594 -4.878354 9.169752 -38.778351 -45.849448 38.991412 -76.067188 28.574800 0.000000 0.000000 0.000000 1.444396 0.558782 -0.853957 1.349035 2.355018 5.706459 -11.794014 14.110128 72.242549 -165.328117 58.890779 172.400627 0.000000 0.000000 0.000000 
-0.005554 107.264137 2.728268 0.000000 0.000000 0.000000 -33.960933 -5.163648 2.828312 -80.252544 -0.643535 20.705568 44.978496 14.142160 -11.143613 -8.376678 18.228846 -11.820027 0.000000 0.000000 0.000000 -39.809515 1.045197 -1.699135 -77.785152 3.403764 -14.761719 50.567019 -17.882152 8.678559 -5.516983 -23.682190 10.903956 0.000000 0.000000 0.000000 -24.996503 -18.045703 0.427643 -66.237317 9.219140 19.632144 2.502678 -0.218515 -0.742051 0.293724 0.351089 -0.403265 0.000000 0.000000 0.000000 1.985748 -0.124960 -2.922614 -1.457698 1.665258 -1.826678 0.000000 0.000000 0.000000 1.828046 -0.933585 0.142952 1.314250 -0.944117 -5.192917 10.165575 -38.044820 -45.596468 37.643474 -76.109973 27.306038 0.000000 0.000000 0.000000 1.827997 0.685624 -0.619833 1.413851 2.403712 6.135876 -11.405360 13.668741 72.328097 -165.627279 58.980610 172.930705 0.000000 0.000000 0.000000 
-0.213429 107.718338 2.315125 0.000000 0.000000 0.000000 -33.832464 -4.531129 2.968888 -80.059748 -0.497697 20.681425 44.283296 14.293913 -11.121501 -8.845531 18.389712 -11.776144 0.000000 0.000000 0.000000 -38.912219 2.388217 -0.866596 -76.925333 3.404738 -14.400511 49.671045 -17.873963 8.711795 -6.152418 -23.707319 11.075260 0.000000 0.000000 0.000000 -25.229554 -17.276407 0.340679 -66.148483 8.658434 19.190339 2.584171 -0.223945 -0.933783 0.163045 0.360987 -0.353189 0.000000 0.000000 0.000000 1.927019 -0.152194 -2.901970 -1.474839 1.659787 -1.763275 0.000000 0.000000 0.000000 1.752941 -1.050150 0.205048 1.182257 -1.041374 -4.894750 7.885163 -36.861004 -46.425895 36.504011 -76.359370 26.799647 0.000000 0.000000 0.000000 1.675446 0.740509 -0.653787 1.483411 2.185561 6.768223 -10.821409 14.454881 72.685705 -165.528200 58.812280 173.015044 0.000000 0.000000 0.000000 
-0.308153 107.864357 2.110876 0.000000 0.000000 0.000000 -32.819855 -4.082124 3.085971 -79.159994 -0.237134 20.809471 44.342059 14.122120 -10.935732 -8.471532 18.257999 -11.713182 0.000000 0.000000 0.000000 -38.679587 2.587192 -0.801757 -76.707908 3.414311 -14.391132 48.549210 -17.924267 8.721985 -7.056205 -23.749838 11.185040 0.000000 0.000000 0.000000 -25.408329 -18.292493 0.347716 -65.201300 10.872458 20.630091 2.720328 -0.153803 -0.884245 0.212637 0.329392 -0.406168 0.000000 0.000000 0.000000 2.114665 -0.179113 -2.870910 -1.532621 1.571868 -1.739474 0.000000 0.000000 0.000000 1.892987 -1.099260 0.242504 1.094167 -1.518604 -5.173380 9.879893 -36.864327 -46.606161 35.714677 -76.376801 25.848544 0.000000 0.000000 0.000000 1.739336 0.817271 -0.658012 1.103671 2.043011 6.895519 -10.459122 13.504311 72.532074 -165.506371 59.133654 172.922344 0.000000 0.000000 0.000000 
